# xmcd
#
# Track frame offsets:
#	187
#	16325
#	29517
#	44890
#	56437
#	70295
#	81022
#	98387
#	116495
#	127840
#	146512
#	163170
#
# Disc length: 2345 seconds
#
# Revision: 1
# Processed by: cddbd v1.4b42PL1 Copyright (c) Steve Scherf et al.
# Submitted via: EasyCDDAExtractor 4.5.0.2
#
DISCID=9c09270c
DTITLE=Alison Krauss - Two Highways
DYEAR=1989
DGENRE=Bluegrass
TTITLE0=Two Highways
TTITLE1=I'm Alone Again
TTITLE2=Wild Bill Jones
TTITLE3=Beaumont Rag
TTITLE4=Heaven's Bright Shore
TTITLE5=Love You In Vain
TTITLE6=Here Comes Goodbye
TTITLE7=As Lovely as You
TTITLE8=Windy City Rag
TTITLE9=Lord Don't Forsake Me
TTITLE10=Teardrops Will Kiss the Morning Dew
TTITLE11=Midnight Rider
EXTD=
EXTT0=
EXTT1=
EXTT2=
EXTT3=
EXTT4=
EXTT5=
EXTT6=
EXTT7=
EXTT8=
EXTT9=
EXTT10=
EXTT11=
PLAYORDER=
